<svg xmlns="http://www.w3.org/2000/svg" viewBox="0 0 48 32" role="img" aria-label="United States flag">
  <rect width="48" height="32" fill="#ffffff"/>
  <g fill="#b22234">
    <rect y="0" width="48" height="2.46"/>
    <rect y="4.92" width="48" height="2.46"/>
    <rect y="9.84" width="48" height="2.46"/>
    <rect y="14.76" width="48" height="2.46"/>
    <rect y="19.68" width="48" height="2.46"/>
    <rect y="24.6" width="48" height="2.46"/>
    <rect y="29.52" width="48" height="2.48"/>
  </g>
  <rect width="19" height="17.22" fill="#3c3b6e"/>
  <g fill="#ffffff">
    <circle cx="3" cy="3" r="0.75"/>
    <circle cx="7" cy="3" r="0.75"/>
    <circle cx="11" cy="3" r="0.75"/>
    <circle cx="15" cy="3" r="0.75"/>
    <circle cx="5" cy="6" r="0.75"/>
    <circle cx="9" cy="6" r="0.75"/>
    <circle cx="13" cy="6" r="0.75"/>
    <circle cx="17" cy="6" r="0.75"/>
    <circle cx="3" cy="9" r="0.75"/>
    <circle cx="7" cy="9" r="0.75"/>
    <circle cx="11" cy="9" r="0.75"/>
    <circle cx="15" cy="9" r="0.75"/>
    <circle cx="5" cy="12" r="0.75"/>
    <circle cx="9" cy="12" r="0.75"/>
    <circle cx="13" cy="12" r="0.75"/>
    <circle cx="17" cy="12" r="0.75"/>
  </g>
</svg>
